<svg xmlns="http://www.w3.org/2000/svg" width="1200" height="630" viewBox="0 0 1200 630">
  <defs>
    <linearGradient id="bg" x1="0%" y1="0%" x2="100%" y2="100%">
      <stop offset="0%" stop-color="#09090b"/>
      <stop offset="100%" stop-color="#111118"/>
    </linearGradient>
    <linearGradient id="accent" x1="0%" y1="0%" x2="100%" y2="0%">
      <stop offset="0%" stop-color="#2563eb"/>
      <stop offset="100%" stop-color="#3b82f6"/>
    </linearGradient>
  </defs>
  <rect width="1200" height="630" fill="url(#bg)"/>
  <!-- Grid pattern -->
  <g opacity="0.06">
    <line x1="0" y1="0" x2="0" y2="630" stroke="#2563eb" stroke-width="1"/>
    <line x1="60" y1="0" x2="60" y2="630" stroke="#2563eb" stroke-width="1"/>
    <line x1="120" y1="0" x2="120" y2="630" stroke="#2563eb" stroke-width="1"/>
    <line x1="180" y1="0" x2="180" y2="630" stroke="#2563eb" stroke-width="1"/>
    <line x1="240" y1="0" x2="240" y2="630" stroke="#2563eb" stroke-width="1"/>
    <line x1="300" y1="0" x2="300" y2="630" stroke="#2563eb" stroke-width="1"/>
    <line x1="360" y1="0" x2="360" y2="630" stroke="#2563eb" stroke-width="1"/>
    <line x1="420" y1="0" x2="420" y2="630" stroke="#2563eb" stroke-width="1"/>
    <line x1="480" y1="0" x2="480" y2="630" stroke="#2563eb" stroke-width="1"/>
    <line x1="540" y1="0" x2="540" y2="630" stroke="#2563eb" stroke-width="1"/>
    <line x1="600" y1="0" x2="600" y2="630" stroke="#2563eb" stroke-width="1"/>
    <line x1="660" y1="0" x2="660" y2="630" stroke="#2563eb" stroke-width="1"/>
    <line x1="720" y1="0" x2="720" y2="630" stroke="#2563eb" stroke-width="1"/>
    <line x1="780" y1="0" x2="780" y2="630" stroke="#2563eb" stroke-width="1"/>
    <line x1="840" y1="0" x2="840" y2="630" stroke="#2563eb" stroke-width="1"/>
    <line x1="900" y1="0" x2="900" y2="630" stroke="#2563eb" stroke-width="1"/>
    <line x1="960" y1="0" x2="960" y2="630" stroke="#2563eb" stroke-width="1"/>
    <line x1="1020" y1="0" x2="1020" y2="630" stroke="#2563eb" stroke-width="1"/>
    <line x1="1080" y1="0" x2="1080" y2="630" stroke="#2563eb" stroke-width="1"/>
    <line x1="1140" y1="0" x2="1140" y2="630" stroke="#2563eb" stroke-width="1"/>
    <line x1="1200" y1="0" x2="1200" y2="630" stroke="#2563eb" stroke-width="1"/>
  </g>
  <!-- Accent glow -->
  <circle cx="600" cy="315" r="250" fill="url(#accent)" opacity="0.08"/>
  <!-- Text -->
  <text x="600" y="250" text-anchor="middle" font-family="system-ui, -apple-system, sans-serif" font-size="64" font-weight="900" fill="#ffffff" letter-spacing="-1">Safeer</text>
  <text x="600" y="320" text-anchor="middle" font-family="system-ui, -apple-system, sans-serif" font-size="28" font-weight="500" fill="#93c5fd" letter-spacing="2">SHOPIFY AUTOMATION &amp; DEVELOPMENT</text>
  <text x="600" y="400" text-anchor="middle" font-family="system-ui, -apple-system, sans-serif" font-size="22" font-weight="400" fill="#a1a1aa">Systems That Work While You Sleep</text>
  <!-- URL -->
  <text x="600" y="520" text-anchor="middle" font-family="system-ui, -apple-system, sans-serif" font-size="18" font-weight="500" fill="#3b82f6">safeer.dev</text>
</svg>
