<svg xmlns="http://www.w3.org/2000/svg" width="1200" height="630" viewBox="0 0 1200 630">
  <defs>
    <linearGradient id="bg" x1="0%" y1="0%" x2="100%" y2="100%">
      <stop offset="0%" stop-color="#09090b"/>
      <stop offset="100%" stop-color="#111118"/>
    </linearGradient>
    <linearGradient id="accent" x1="0%" y1="0%" x2="100%" y2="0%">
      <stop offset="0%" stop-color="#2563eb"/>
      <stop offset="100%" stop-color="#3b82f6"/>
    </linearGradient>
  </defs>
  <rect width="1200" height="630" fill="url(#bg)"/>
  <g opacity="0.06">
    <path d="M0 0H1200M0 60H1200M0 120H1200M0 180H1200M0 240H1200M0 300H1200M0 360H1200M0 420H1200M0 480H1200M0 540H1200M0 600H1200" stroke="#2563eb" stroke-width="1"/>
    <path d="M0 0V630M60 0V630M120 0V630M180 0V630M240 0V630M300 0V630M360 0V630M420 0V630M480 0V630M540 0V630M600 0V630M660 0V630M720 0V630M780 0V630M840 0V630M900 0V630M960 0V630M1020 0V630M1080 0V630M1140 0V630M1200 0V630" stroke="#2563eb" stroke-width="1"/>
  </g>
  <circle cx="600" cy="315" r="250" fill="url(#accent)" opacity="0.08"/>
  <text x="600" y="240" text-anchor="middle" font-family="system-ui, -apple-system, sans-serif" font-size="72" font-weight="900" fill="#ffffff" letter-spacing="-1">Safeer</text>
  <text x="600" y="318" text-anchor="middle" font-family="system-ui, -apple-system, sans-serif" font-size="28" font-weight="600" fill="#93c5fd" letter-spacing="1.5">AUTOMATION · AI SYSTEMS · WEB SYSTEMS</text>
  <text x="600" y="395" text-anchor="middle" font-family="system-ui, -apple-system, sans-serif" font-size="24" font-weight="400" fill="#a1a1aa">Cleaner workflows for founder-led teams</text>
  <text x="600" y="520" text-anchor="middle" font-family="system-ui, -apple-system, sans-serif" font-size="18" font-weight="500" fill="#3b82f6">safeer.dev</text>
</svg>
